<svg width="24" height="24" viewBox="0 0 24 24" fill="none" xmlns="http://www.w3.org/2000/svg">
<path d="M17 21.9999H6.99998C6.58998 21.9999 6.24998 21.6599 6.24998 21.2499C6.24998 20.8399 6.58998 20.4999 6.99998 20.4999H17C17.41 20.4999 17.75 20.8399 17.75 21.2499C17.75 21.6599 17.41 21.9999 17 21.9999Z" fill="#0A0A0F"/>
<path d="M20.35 5.51992L16.35 8.37992C15.82 8.75992 15.06 8.52992 14.83 7.91992L12.94 2.87992C12.62 2.00992 11.39 2.00992 11.07 2.87992L9.16998 7.90992C8.93998 8.52992 8.18997 8.75992 7.65998 8.36992L3.65998 5.50992C2.85998 4.94992 1.79998 5.73992 2.12998 6.66992L6.28998 18.3199C6.42998 18.7199 6.80998 18.9799 7.22998 18.9799H16.76C17.18 18.9799 17.56 18.7099 17.7 18.3199L21.86 6.66992C22.2 5.73992 21.14 4.94992 20.35 5.51992ZM14.5 14.7499H9.49998C9.08998 14.7499 8.74998 14.4099 8.74998 13.9999C8.74998 13.5899 9.08998 13.2499 9.49998 13.2499H14.5C14.91 13.2499 15.25 13.5899 15.25 13.9999C15.25 14.4099 14.91 14.7499 14.5 14.7499Z" fill="#0A0A0F"/>
</svg>
