<svg width="28" height="28" viewBox="0 0 28 28" fill="none" xmlns="http://www.w3.org/2000/svg">
<path d="M13.9999 25.6668C20.4432 25.6668 25.6666 20.4435 25.6666 14.0002C25.6666 7.55684 20.4432 2.3335 13.9999 2.3335C7.5566 2.3335 2.33325 7.55684 2.33325 14.0002C2.33325 20.4435 7.5566 25.6668 13.9999 25.6668Z" stroke="white" stroke-opacity="0.6" stroke-width="1.5" stroke-linecap="round" stroke-linejoin="round"/>
<path d="M9.33328 3.5H10.5C8.22495 10.3133 8.22495 17.6867 10.5 24.5H9.33328" stroke="white" stroke-opacity="0.6" stroke-width="1.5" stroke-linecap="round" stroke-linejoin="round"/>
<path d="M17.5 3.5C19.775 10.3133 19.775 17.6867 17.5 24.5" stroke="white" stroke-opacity="0.6" stroke-width="1.5" stroke-linecap="round" stroke-linejoin="round"/>
<path d="M3.5 18.6667V17.5C10.3133 19.775 17.6867 19.775 24.5 17.5V18.6667" stroke="white" stroke-opacity="0.6" stroke-width="1.5" stroke-linecap="round" stroke-linejoin="round"/>
<path d="M3.5 10.5002C10.3133 8.2252 17.6867 8.2252 24.5 10.5002" stroke="white" stroke-opacity="0.6" stroke-width="1.5" stroke-linecap="round" stroke-linejoin="round"/>
</svg>
