<svg width="16" height="19" viewBox="0 0 16 19" fill="none" xmlns="http://www.w3.org/2000/svg">
<path d="M15.1834 6.54158C14.3084 2.69159 10.9501 0.958252 8.00008 0.958252C8.00008 0.958252 8.00008 0.958252 7.99175 0.958252C5.05008 0.958252 1.68341 2.68325 0.808413 6.53325C-0.166587 10.8333 2.46675 14.4749 4.85008 16.7666C5.73341 17.6166 6.86675 18.0416 8.00008 18.0416C9.13341 18.0416 10.2667 17.6166 11.1417 16.7666C13.5251 14.4749 16.1584 10.8416 15.1834 6.54158ZM8.00008 10.7166C6.55008 10.7166 5.37508 9.54158 5.37508 8.09159C5.37508 6.64158 6.55008 5.46658 8.00008 5.46658C9.45008 5.46658 10.6251 6.64158 10.6251 8.09159C10.6251 9.54158 9.45008 10.7166 8.00008 10.7166Z" fill="white" fill-opacity="0.9"/>
</svg>
