<svg width="24" height="25" viewBox="0 0 24 25" fill="none" xmlns="http://www.w3.org/2000/svg">
<path d="M17.5301 8.27C17.4601 8.26 17.3901 8.26 17.3201 8.27C15.7701 8.22 14.5401 6.95 14.5401 5.39C14.5401 3.8 15.8301 2.5 17.4301 2.5C19.0201 2.5 20.3201 3.79 20.3201 5.39C20.3101 6.95 19.0801 8.22 17.5301 8.27Z" fill="#0A0A0F"/>
<path d="M20.7901 15.2C19.6701 15.95 18.1001 16.23 16.6501 16.04C17.0301 15.22 17.2301 14.31 17.2401 13.35C17.2401 12.35 17.0201 11.4 16.6001 10.57C18.0801 10.37 19.6501 10.65 20.7801 11.4C22.3601 12.44 22.3601 14.15 20.7901 15.2Z" fill="#0A0A0F"/>
<path d="M6.44012 8.27C6.51012 8.26 6.58012 8.26 6.65012 8.27C8.20012 8.22 9.43012 6.95 9.43012 5.39C9.43012 3.79 8.14012 2.5 6.54012 2.5C4.95012 2.5 3.66012 3.79 3.66012 5.39C3.66012 6.95 4.89012 8.22 6.44012 8.27Z" fill="#0A0A0F"/>
<path d="M6.55012 13.35C6.55012 14.32 6.76012 15.24 7.14012 16.07C5.73012 16.22 4.26012 15.92 3.18012 15.21C1.60012 14.16 1.60012 12.45 3.18012 11.4C4.25012 10.68 5.76012 10.39 7.18012 10.55C6.77012 11.39 6.55012 12.34 6.55012 13.35Z" fill="#0A0A0F"/>
<path d="M12.1201 16.37C12.0401 16.36 11.9501 16.36 11.8601 16.37C10.0201 16.31 8.55012 14.8 8.55012 12.94C8.56012 11.04 10.0901 9.5 12.0001 9.5C13.9001 9.5 15.4401 11.04 15.4401 12.94C15.4301 14.8 13.9701 16.31 12.1201 16.37Z" fill="#0A0A0F"/>
<path d="M8.87012 18.44C7.36012 19.45 7.36012 21.11 8.87012 22.11C10.5901 23.26 13.4101 23.26 15.1301 22.11C16.6401 21.1 16.6401 19.44 15.1301 18.44C13.4201 17.29 10.6001 17.29 8.87012 18.44Z" fill="#0A0A0F"/>
</svg>
