<svg width="21" height="21" viewBox="0 0 21 21" fill="none" xmlns="http://www.w3.org/2000/svg">
<path d="M14.6667 3.41699H6.33341C3.83341 3.41699 2.16675 4.66699 2.16675 7.58366V13.417C2.16675 16.3337 3.83341 17.5837 6.33341 17.5837H14.6667C17.1667 17.5837 18.8334 16.3337 18.8334 13.417V7.58366C18.8334 4.66699 17.1667 3.41699 14.6667 3.41699ZM15.0584 8.49199L12.4501 10.5753C11.9001 11.017 11.2001 11.2337 10.5001 11.2337C9.80008 11.2337 9.09175 11.017 8.55008 10.5753L5.94175 8.49199C5.67508 8.27533 5.63341 7.87533 5.84175 7.60866C6.05841 7.34199 6.45008 7.29199 6.71675 7.50866L9.32508 9.59199C9.95841 10.1003 11.0334 10.1003 11.6667 9.59199L14.2751 7.50866C14.5417 7.29199 14.9417 7.33366 15.1501 7.60866C15.3667 7.87533 15.3251 8.27533 15.0584 8.49199Z" fill="white" fill-opacity="0.9"/>
</svg>
