<svg width="28" height="29" viewBox="0 0 28 29" fill="none" xmlns="http://www.w3.org/2000/svg">
<path d="M13.9999 2.8335C7.57159 2.8335 2.33325 8.07183 2.33325 14.5002C2.33325 20.9285 7.57159 26.1668 13.9999 26.1668C20.4283 26.1668 25.6666 20.9285 25.6666 14.5002C25.6666 8.07183 20.4283 2.8335 13.9999 2.8335ZM19.5766 11.8168L12.9616 18.4318C12.7983 18.5952 12.5766 18.6885 12.3433 18.6885C12.1099 18.6885 11.8883 18.5952 11.7249 18.4318L8.42325 15.1302C8.08492 14.7918 8.08492 14.2318 8.42325 13.8935C8.76159 13.5552 9.32159 13.5552 9.65992 13.8935L12.3433 16.5768L18.3399 10.5802C18.6783 10.2418 19.2383 10.2418 19.5766 10.5802C19.9149 10.9185 19.9149 11.4668 19.5766 11.8168Z" fill="white"/>
</svg>
