<svg width="24" height="24" viewBox="0 0 24 24" fill="none" xmlns="http://www.w3.org/2000/svg">
<path d="M5 14.9998C2.79 14.9998 1 16.7898 1 18.9998C1 19.7498 1.21 20.4598 1.58 21.0598C2.27 22.2198 3.54 22.9998 5 22.9998C6.46 22.9998 7.73 22.2198 8.42 21.0598C8.79 20.4598 9 19.7498 9 18.9998C9 16.7898 7.21 14.9998 5 14.9998ZM6.49 19.7298H5.75V20.5098C5.75 20.9198 5.41 21.2598 5 21.2598C4.59 21.2598 4.25 20.9198 4.25 20.5098V19.7298H3.51C3.1 19.7298 2.76 19.3898 2.76 18.9798C2.76 18.5698 3.1 18.2298 3.51 18.2298H4.25V17.5198C4.25 17.1098 4.59 16.7698 5 16.7698C5.41 16.7698 5.75 17.1098 5.75 17.5198V18.2298H6.49C6.9 18.2298 7.24 18.5698 7.24 18.9798C7.24 19.3898 6.91 19.7298 6.49 19.7298Z" fill="#0A0A0F"/>
<path d="M21.5 12.4998H19C17.9 12.4998 17 13.3998 17 14.4998C17 15.5998 17.9 16.4998 19 16.4998H21.5C21.78 16.4998 22 16.2798 22 15.9998V12.9998C22 12.7198 21.78 12.4998 21.5 12.4998Z" fill="#0A0A0F"/>
<path d="M16.53 5.39979C16.83 5.68979 16.58 6.13979 16.16 6.13979L7.88 6.12979C7.4 6.12979 7.16 5.54979 7.5 5.20979L9.25 3.44979C10.73 1.97979 13.12 1.97979 14.6 3.44979L16.49 5.35979C16.5 5.36979 16.52 5.38979 16.53 5.39979Z" fill="#0A0A0F"/>
<path d="M21.87 18.6598C21.26 20.7198 19.5 21.9998 17.1 21.9998H10.6C10.21 21.9998 9.96 21.5698 10.12 21.2098C10.42 20.5098 10.61 19.7198 10.61 18.9998C10.61 15.9698 8.14 13.4998 5.11 13.4998C4.35 13.4998 3.61 13.6598 2.93 13.9598C2.56 14.1198 2.11 13.8698 2.11 13.4698V11.9998C2.11 9.27979 3.75 7.37979 6.3 7.05979C6.55 7.01979 6.82 6.99979 7.1 6.99979H17.1C17.36 6.99979 17.61 7.00979 17.85 7.04979C19.87 7.27979 21.33 8.50979 21.87 10.3398C21.97 10.6698 21.73 10.9998 21.39 10.9998H19.1C16.93 10.9998 15.21 12.9798 15.68 15.2298C16.01 16.8698 17.53 17.9998 19.2 17.9998H21.39C21.74 17.9998 21.97 18.3398 21.87 18.6598Z" fill="#0A0A0F"/>
</svg>
